<?xml version="1.0" encoding="utf-8"?>
<!-- Generator: Adobe Illustrator 22.1.0, SVG Export Plug-In . SVG Version: 6.00 Build 0)  -->
<svg version="1.1" id="Layer_1" xmlns="http://www.w3.org/2000/svg" xmlns:xlink="http://www.w3.org/1999/xlink" x="0px" y="0px"
	 viewBox="0 0 72 72" style="enable-background:new 0 0 72 72;" xml:space="preserve">
<style type="text/css">
	.st0{fill:#FFFFFF;}
</style>
<title>Linkedin</title>
<desc>Created with Sketch.</desc>
<path class="st0" d="M64,0H8C3.6,0,0,3.6,0,8v56c0,4.4,3.6,8,8,8h56c4.4,0,8-3.6,8-8V8C72,3.6,68.4,0,64,0z M21.8,27.5V62v0.2H11V62
	V27.5v-0.2h10.7V27.5z M22.7,16.6c0,3.5-2.8,6.4-6.3,6.4c-3.5,0-6.3-2.9-6.3-6.4c0,0,0-0.1,0-0.1c0,0,0-0.1,0-0.1
	c0-3.5,2.8-6.4,6.3-6.4c3.5,0,6.3,2.9,6.3,6.4C22.7,16.4,22.7,16.5,22.7,16.6C22.7,16.5,22.7,16.5,22.7,16.6z M62,40.2V62v0.2H51.3
	V62V44c0-5-1.9-7.8-5.8-7.8c-4.3,0-6.5,2.9-6.5,7.8v18v0.2H28.6V62V27.5v-0.2h10.3v0.2V32c0,0,3.1-5.7,10.5-5.7
	c7.4,0,12.6,4.5,12.6,13.8V40.2z"/>
</svg>
